<?xml version="1.0" encoding="UTF-8"?>
<svg id="Layer_1" xmlns="http://www.w3.org/2000/svg" version="1.1" viewBox="0 0 378.3 901.3">
  <!-- Generator: Adobe Illustrator 30.1.0, SVG Export Plug-In . SVG Version: 2.1.1 Build 136)  -->
  <defs>
    <style>
      .st0 {
        fill: #fff;
      }
    </style>
  </defs>
  <path class="st0" d="M150.5,170.6c-5.4,0-10.4-.9-14.9-2.8s-8.4-4.5-11.7-7.8c-3.3-3.3-5.9-7.2-7.7-11.8-1.8-4.6-2.8-9.5-2.8-14.9s.9-10.3,2.8-14.8c1.8-4.6,4.4-8.5,7.7-11.8,3.3-3.3,7.2-5.9,11.7-7.8,4.5-1.9,9.4-2.8,14.9-2.8s10.3.9,14.8,2.8c4.5,1.9,8.4,4.5,11.7,7.8s5.9,7.2,7.7,11.8c1.8,4.6,2.8,9.5,2.8,14.8s-.9,10.3-2.8,14.9c-1.8,4.6-4.4,8.5-7.7,11.8s-7.2,5.9-11.7,7.8-9.4,2.8-14.8,2.8ZM150.5,162.8c4.1,0,7.9-.8,11.3-2.3,3.4-1.5,6.4-3.6,8.9-6.3,2.5-2.7,4.4-5.8,5.8-9.4,1.4-3.6,2.1-7.4,2.1-11.5s-.7-7.9-2.1-11.4c-1.4-3.6-3.3-6.7-5.8-9.4-2.5-2.7-5.4-4.8-8.9-6.3-3.4-1.5-7.2-2.3-11.3-2.3s-7.9.8-11.4,2.3c-3.4,1.5-6.4,3.6-8.9,6.3-2.5,2.7-4.4,5.8-5.8,9.4-1.4,3.6-2,7.4-2,11.4s.7,7.9,2,11.5c1.4,3.6,3.3,6.7,5.8,9.4,2.5,2.7,5.4,4.8,8.9,6.3,3.4,1.5,7.2,2.3,11.4,2.3Z"/>
  <path class="st0" d="M249.3,141.8c0,3.9-.5,7.5-1.4,11-1,3.5-2.5,6.5-4.6,9.2-2.1,2.6-4.9,4.7-8.2,6.3s-7.5,2.3-12.4,2.3-9-.8-12.4-2.3c-3.4-1.6-6.1-3.7-8.2-6.3-2.1-2.6-3.6-5.7-4.6-9.2-1-3.5-1.5-7.1-1.5-11v-43.8h8.4v42.6c0,2.9.3,5.6.9,8.3.6,2.7,1.6,5,3,7.1,1.4,2.1,3.3,3.7,5.6,5,2.3,1.2,5.3,1.8,8.8,1.8s6.5-.6,8.8-1.8c2.3-1.2,4.2-2.9,5.6-5,1.4-2.1,2.4-4.4,3-7.1.6-2.7.9-5.4.9-8.3v-42.6h8.4v43.8Z"/>
  <path class="st0" d="M146.3,344.2l-26.4-40.3h10.7l19.9,32,20.5-32h10.1l-26.4,40.3v30.5h-8.4v-30.5Z"/>
  <path class="st0" d="M216.6,303.9h7.9l30.1,70.8h-9.8l-7.2-17.4h-35.4l-7.3,17.4h-9.5l31.2-70.8ZM220.4,314.7h-.2l-14.7,34.8h28.9l-14-34.8Z"/>
  <path class="st0" d="M147.2,557.5l-26.4-40.3h10.7l19.9,32,20.5-32h10.1l-26.4,40.3v30.5h-8.4v-30.5Z"/>
  <path class="st0" d="M199.4,517.2h44.5v7.8h-36.1v22.2h33.7v7.8h-33.7v25.2h37.9v7.8h-46.3v-70.8Z"/>
  <path class="st0" d="M128.7,731.6h21.6c2.9,0,5.8.3,8.6.9,2.8.6,5.3,1.6,7.5,3,2.2,1.4,4,3.2,5.4,5.4,1.4,2.2,2,4.9,2,8.2s-1.1,7.6-3.4,10.2c-2.2,2.7-5.2,4.6-9,5.8v.2c2.3.2,4.4.8,6.4,1.8,2,1,3.7,2.2,5.1,3.8,1.4,1.5,2.5,3.3,3.3,5.4.8,2,1.2,4.2,1.2,6.5,0,3.9-.8,7.2-2.5,9.7-1.6,2.5-3.8,4.5-6.4,6-2.6,1.5-5.6,2.5-8.9,3.1-3.3.6-6.6.9-9.9.9h-21.1v-70.8ZM137.1,761.6h11.6c2,0,4-.1,5.9-.4,1.9-.3,3.6-.8,5.1-1.6,1.5-.8,2.8-2,3.7-3.5.9-1.5,1.4-3.5,1.4-6s-.4-4-1.3-5.4c-.9-1.4-2-2.4-3.5-3.2-1.4-.8-3.1-1.3-4.9-1.6-1.8-.3-3.7-.5-5.5-.5h-12.5v22.2ZM137.1,794.6h14.2c2.1,0,4.1-.2,6.1-.7,2-.4,3.9-1.1,5.5-2.1,1.6-1,3-2.2,4-3.8s1.5-3.5,1.5-5.8-.5-4.5-1.5-6.2c-1-1.7-2.2-3-3.8-4-1.6-1-3.4-1.7-5.4-2.1-2-.4-4.1-.6-6.2-.6h-14.4v25.2Z"/>
  <path class="st0" d="M246.7,775.4c0,3.9-.5,7.5-1.4,11-1,3.5-2.5,6.5-4.6,9.2-2.1,2.6-4.9,4.7-8.2,6.3s-7.5,2.3-12.4,2.3-9-.8-12.4-2.3c-3.4-1.6-6.1-3.7-8.2-6.3-2.1-2.6-3.6-5.7-4.6-9.2-1-3.5-1.5-7.1-1.5-11v-43.8h8.4v42.6c0,2.9.3,5.6.9,8.3.6,2.7,1.6,5,3,7.1,1.4,2.1,3.3,3.7,5.6,5,2.3,1.2,5.3,1.8,8.8,1.8s6.5-.6,8.8-1.8c2.3-1.2,4.2-2.9,5.6-5,1.4-2.1,2.4-4.4,3-7.1.6-2.7.9-5.4.9-8.3v-42.6h8.4v43.8Z"/>
  <path class="st0" d="M339.8,863.7H38.5V37.6h301.3v826.1ZM40.5,861.7h297.3V39.6H40.5v822.1Z"/>
  <rect class="st0" x="150" y="196.6" width="1" height="79.5"/>
  <rect class="st0" x="222.1" y="196.6" width="1" height="79.5"/>
  <rect class="st0" x="150" y="400.3" width="1" height="79.5"/>
  <rect class="st0" x="222.1" y="400.3" width="1" height="79.5"/>
  <rect class="st0" x="150" y="620" width="1" height="79.5"/>
  <rect class="st0" x="222.1" y="620" width="1" height="79.5"/>
</svg>